<svg width="342" height="241" viewBox="0 0 342 241" fill="none" xmlns="http://www.w3.org/2000/svg">
<path d="M233.72 18.5911V196.898C233.72 207.106 225.434 215.391 215.227 215.391H127.688C117.48 215.391 109.195 207.106 109.195 196.898L109.195 18.5911C109.195 8.38383 117.48 0.098053 127.688 0.098053L215.23 0.098053C225.437 0.098053 233.723 8.38383 233.723 18.5911H233.72Z" fill="#202020"/>
<path d="M127.687 1.85147H215.229C224.469 1.85147 231.969 9.3518 231.969 18.5913V196.899C231.969 206.138 224.469 213.638 215.229 213.638H127.687C118.447 213.638 110.947 206.138 110.947 196.899V18.5913C110.947 9.3518 118.447 1.85147 127.687 1.85147Z" fill="#333333"/>
<path d="M233.523 49.5356V29.1982C234.684 29.1982 235.627 30.1414 235.627 31.302V47.4318C235.627 48.5924 234.684 49.5356 233.523 49.5356Z" fill="#202020"/>
<path d="M109.419 70.7468V50.4093C108.259 50.4093 107.316 51.3525 107.316 52.5131V68.6429C107.316 69.8035 108.259 70.7468 109.419 70.7468Z" fill="#202020"/>
<path d="M109.419 91.9579V71.6205C108.259 71.6205 107.316 72.5637 107.316 73.7243V89.8541C107.316 91.0147 108.259 91.9579 109.419 91.9579Z" fill="#202020"/>
<path d="M110.255 42.5203V28.733C109.085 28.733 108.134 29.3724 108.134 30.1593V41.094C108.134 41.8808 109.085 42.5203 110.255 42.5203Z" fill="#202020"/>
<rect x="115.986" y="19.0966" width="112.686" height="174.778" rx="2" fill="#FFF9E6"/>
<mask id="mask0_2_304" style="mask-type:alpha" maskUnits="userSpaceOnUse" x="115" y="23" width="114" height="171">
<rect x="115.986" y="23.696" width="112.686" height="170.179" rx="2" fill="#FFF9E6"/>
</mask>
<g mask="url(#mask0_2_304)">
<path d="M222.017 84.1778C222.017 82.2734 221.078 80.6037 219.643 79.5602C221.704 78.3863 223.113 76.1949 223.113 73.6382C223.113 70.9251 221.495 68.5772 219.2 67.4815C220.895 66.2292 221.991 64.2465 221.991 61.9769C221.991 58.455 219.304 55.5592 215.86 55.194C216.199 54.2809 216.434 53.2896 216.434 52.246C216.434 47.7067 212.756 44.0022 208.19 44.0022C206.208 44.0022 204.434 44.7327 202.999 45.8805C203.234 45.2544 203.364 44.6022 203.364 43.8979C203.364 40.7151 200.781 38.1585 197.625 38.1585C196.894 38.1585 196.216 38.315 195.59 38.5498C194.99 35.5497 192.329 33.3061 189.146 33.3061C187.555 33.3061 186.12 33.88 184.972 34.8192C183.642 32.4191 181.111 30.8016 178.163 30.8016C176.833 30.8016 175.606 31.1669 174.511 31.7408C172.945 30.3321 170.911 29.4451 168.641 29.4451C164.989 29.4451 161.884 31.6626 160.554 34.8192C158.962 33.5409 156.98 32.7583 154.788 32.7583C150.484 32.7583 146.91 35.7062 145.892 39.6716C144.144 39.0716 142.24 38.8629 140.283 39.2281C134.257 40.376 130.291 46.1675 131.439 52.1939C131.596 53.0809 131.909 53.9157 132.274 54.6983C131.518 54.62 130.735 54.594 129.952 54.7505C125.752 55.5331 122.987 59.6029 123.769 63.777C124.135 65.7336 125.23 67.351 126.665 68.4467C123.848 70.012 122.204 73.2469 122.83 76.6123C123.326 79.1689 124.996 81.1777 127.187 82.1951C125.57 83.6821 124.709 85.9257 125.152 88.2476C125.544 90.2563 126.796 91.8477 128.465 92.7608C127.135 94.1174 126.483 96.0479 126.848 98.0567C127.317 100.483 129.196 102.309 131.465 102.779C130.918 104.005 130.735 105.387 130.996 106.822C131.544 109.744 133.866 111.857 136.631 112.327C136.631 112.536 136.631 112.77 136.683 112.979C137.257 116.031 140.205 118.014 143.231 117.44C143.231 117.753 143.231 118.04 143.309 118.353C143.805 120.936 146.283 122.606 148.84 122.136C149.388 122.032 149.91 121.823 150.353 121.536C151.397 122.814 152.962 123.675 154.736 123.675C155.023 123.675 155.31 123.623 155.597 123.597C156.588 125.214 158.362 126.284 160.397 126.284C162.275 126.284 163.945 125.345 164.963 123.936C165.98 125.345 167.65 126.284 169.528 126.284C171.406 126.284 173.076 125.345 174.093 123.936C175.111 125.345 176.78 126.284 178.659 126.284C180.537 126.284 182.207 125.345 183.224 123.936C184.242 125.345 185.911 126.284 187.79 126.284C190.581 126.284 192.877 124.249 193.346 121.588C193.92 121.797 194.546 121.927 195.199 121.927C198.329 121.927 200.86 119.397 200.86 116.266C200.86 116.11 200.834 115.927 200.808 115.77C201.695 116.344 202.764 116.71 203.912 116.71C207.043 116.71 209.573 114.179 209.573 111.049C209.573 110.866 209.547 110.683 209.521 110.527C209.834 110.579 210.121 110.631 210.434 110.631C213.33 110.631 215.652 108.283 215.652 105.413C215.652 103.979 215.078 102.7 214.165 101.761C217.634 100.692 220.165 97.4827 220.165 93.6739C220.165 92.0303 219.669 90.5172 218.887 89.2389C220.634 88.2476 221.835 86.3953 221.835 84.23L222.017 84.1778Z" fill="#2A2A2A"/>
<path d="M242.47 289.961L232.635 164.138C230.913 155.451 225.513 148.355 214.869 146.894L198.747 143.45L195.851 142.824C191.442 141.885 188.181 138.05 187.999 133.537L187.633 125.841L187.399 120.963H157.293L157.058 125.841L156.693 133.537C156.484 138.05 153.249 141.859 148.814 142.824L145.919 143.45L129.796 146.894C119.152 148.381 113.752 155.451 112.03 164.138L102.195 289.961V317.953C102.195 317.953 101.83 326.38 106.369 326.771C106.813 326.797 107.204 326.797 107.595 326.823C110.282 326.954 111.221 323.615 111.352 320.823L112.187 301.909C112.239 300.97 113.022 300.214 113.935 300.266C114.848 300.318 115.552 301.101 115.526 302.066L115.213 309.292C115.135 310.936 116.387 312.345 117.978 312.397C119.57 312.475 120.926 311.197 121.004 309.527L121.605 298.779C121.709 296.535 122.231 292.779 119.831 289.309L116.961 286.413L130.005 195.731L130.083 196.018L133.605 214.593C137.518 237.498 137.127 241.124 132.77 255.42L126.692 274.517C124.266 282.787 124.265 298.596 124.265 298.596L126.718 341.511H126.744L133.214 453.455L158.597 453.011L165.928 341.485L167.937 313.362C167.937 313.362 168.72 309.344 169.398 308.484C170.885 306.579 173.885 306.736 175.215 308.484C175.868 309.344 176.676 313.362 176.676 313.362L178.685 341.485L185.99 453.011L211.374 453.455L217.843 341.511H217.869L220.322 298.596C220.322 298.596 220.322 282.787 217.896 274.517L211.974 255.733C208.217 243.081 206.86 237.524 210.982 214.619L214.504 196.044L214.582 195.731L227.626 286.413L224.757 289.309C222.357 292.779 222.878 296.535 222.983 298.779L223.583 309.527C223.661 311.171 225.018 312.449 226.609 312.397C228.2 312.318 229.453 310.936 229.374 309.292L229.061 302.066C229.009 301.127 229.739 300.318 230.653 300.266C231.566 300.24 232.348 300.97 232.401 301.909L233.235 320.823C233.366 323.615 234.305 326.954 236.992 326.823C237.383 326.823 237.775 326.823 238.218 326.771C242.757 326.38 242.366 317.953 242.366 317.953V289.961H242.47Z" fill="url(#paint0_linear_2_304)"/>
<path d="M187.764 128.345L187.66 125.841L187.425 120.963H157.319L157.085 125.841L157.006 127.745C160.267 131.398 165.433 135.207 172.685 135.207C179.468 135.207 184.373 131.92 187.738 128.345H187.764Z" fill="#9D5612"/>
<path d="M172.711 62.0815L149.623 62.1859V104.344C149.623 106.614 150.979 113.318 152.597 116.032C152.597 116.032 158.78 130.041 172.711 130.041C187.607 130.041 193.607 114.205 193.607 114.205C194.625 111.779 195.746 105.753 195.825 104.37V62.1859L172.737 62.0815H172.711Z" fill="url(#paint1_linear_2_304)"/>
<path d="M200.39 54.9598H146.257L147.196 77.552H147.249C147.483 79.9261 149.466 81.7783 151.918 81.7783C153.484 81.7783 154.866 80.9957 155.701 79.8478C156.797 81.4392 158.649 82.5088 160.736 82.5088C163.58 82.5088 165.954 80.5522 166.658 77.9173C167.519 78.439 168.51 78.7521 169.58 78.7521C172.632 78.7521 175.085 76.3259 175.215 73.2997C175.841 73.5345 176.519 73.691 177.25 73.691C180.25 73.691 182.728 71.4213 183.068 68.4995C183.928 69.3865 185.102 69.9343 186.433 69.9343C187.555 69.9343 188.598 69.5169 189.407 68.8386C188.781 69.7256 188.416 70.7691 188.416 71.9431C188.416 74.5519 190.242 76.7172 192.694 77.239C192.877 79.2738 194.572 80.8913 196.659 80.8913C198.642 80.8913 200.26 79.4565 200.599 77.5781L200.442 55.012L200.39 54.9598Z" fill="#2A2A2A"/>
<path d="M212.052 255.785C211.817 255.029 211.609 254.298 211.4 253.594C209.183 246.185 208.243 241.593 208.556 234.68C208.713 229.619 209.47 223.41 211.061 214.67L214.661 195.809L214.739 196.357L234.592 189.078L232.636 164.164C230.914 155.477 225.514 148.381 214.87 146.92L207.278 145.302L203.052 144.389C203.078 144.989 203.13 145.589 203.13 146.215C203.13 163.199 189.356 176.999 172.346 176.999C155.337 176.999 141.562 163.225 141.562 146.215C141.562 145.615 141.614 145.015 141.667 144.415L129.875 146.946C119.231 148.433 113.831 155.503 112.109 164.19L110.1 189.861L129.927 197.113L130.11 195.861L130.188 196.148L130.397 197.27L130.449 197.609C130.449 197.609 130.449 197.609 130.449 197.661L131.388 202.67L133.658 214.723C137.571 237.628 137.179 241.254 132.823 255.55L126.744 274.647C126.588 275.143 126.457 275.69 126.327 276.264C126.275 276.447 126.249 276.682 126.196 276.864C126.118 277.23 126.04 277.595 125.962 277.986L170.937 278.247V278.456L218.731 278.169C218.496 276.917 218.235 275.716 217.922 274.647L212 255.863L212.052 255.785Z" fill="white"/>
</g>
<path fill-rule="evenodd" clip-rule="evenodd" d="M117.986 19.0966C116.881 19.0966 115.986 19.992 115.986 21.0966V191.875C115.986 192.979 116.881 193.875 117.986 193.875H226.672C227.776 193.875 228.672 192.979 228.672 191.875V21.0966C228.672 19.992 227.776 19.0966 226.672 19.0966H117.986ZM172.904 149.03C197.353 149.03 217.173 123.29 217.173 91.5376C217.173 59.7852 197.353 34.0448 172.904 34.0448C148.454 34.0448 128.634 59.7852 128.634 91.5376C128.634 123.29 148.454 149.03 172.904 149.03Z" fill="black" fill-opacity="0.6"/>
<path fill-rule="evenodd" clip-rule="evenodd" d="M172.904 147.03C195.794 147.03 215.173 122.703 215.173 91.5375C215.173 60.3723 195.794 36.0447 172.904 36.0447C150.013 36.0447 130.634 60.3723 130.634 91.5375C130.634 122.703 150.013 147.03 172.904 147.03ZM172.904 149.03C197.353 149.03 217.173 123.29 217.173 91.5375C217.173 59.7851 197.353 34.0447 172.904 34.0447C148.454 34.0447 128.634 59.7851 128.634 91.5375C128.634 123.29 148.454 149.03 172.904 149.03Z" fill="white" fill-opacity="0.6"/>
<rect x="115.986" y="178.927" width="112.686" height="14.9481" fill="#4D4D4D" fill-opacity="0.6"/>
<rect x="115.986" y="17.9467" width="112.686" height="10.3487" fill="#4D4D4D" fill-opacity="0.6"/>
<path d="M76.3586 166.783L109.224 131.322V168.945C109.224 168.224 110.426 166.783 112.252 163.323C120.468 147.755 126.09 150.782 129.117 151.647C136.468 155.539 132.482 164.62 131.185 166.783C127.293 173.702 123.063 186.243 120.468 196.189C118.738 206.222 106.774 222.856 102.738 227.325V241H68.5746V227.325C68.4304 218.676 70.6425 192.297 72.0341 182.351C73.332 173.075 74.6288 168.08 76.3586 166.783Z" fill="url(#paint2_linear_2_304)"/>
<path d="M101.777 185.378L109.129 153.81V168.513C105.323 174.048 102.642 182.063 101.777 185.378Z" fill="#9D5612"/>
<path d="M265.641 166.783L232.776 131.322V168.945C232.776 168.224 231.574 166.783 229.748 163.323C221.532 147.755 215.91 150.782 212.883 151.647C205.532 155.539 209.518 164.62 210.815 166.783C214.707 173.702 218.937 186.243 221.532 196.189C223.262 206.222 235.226 222.856 239.262 227.325V241H273.425V227.325C273.57 218.676 271.357 192.297 269.966 182.351C268.668 173.075 267.371 168.08 265.641 166.783Z" fill="url(#paint3_linear_2_304)"/>
<path d="M240.223 185.378L232.871 153.81V168.513C236.677 174.048 239.358 182.063 240.223 185.378Z" fill="#9D5612"/>
<defs>
<linearGradient id="paint0_linear_2_304" x1="173.068" y1="92.2031" x2="173.068" y2="304.842" gradientUnits="userSpaceOnUse">
<stop stop-color="#B67A43"/>
<stop offset="0.301116" stop-color="#FFBF85"/>
</linearGradient>
<linearGradient id="paint1_linear_2_304" x1="126.553" y1="-14.1163" x2="172.724" y2="130.041" gradientUnits="userSpaceOnUse">
<stop offset="0.0406256" stop-color="#B57A43"/>
<stop offset="0.846898" stop-color="#FFBF85"/>
</linearGradient>
<linearGradient id="paint2_linear_2_304" x1="314.109" y1="19.7513" x2="-111.417" y2="353.599" gradientUnits="userSpaceOnUse">
<stop offset="0.306085" stop-color="#7F4712"/>
<stop offset="0.457914" stop-color="#FFBF85"/>
<stop offset="0.737239" stop-color="#7F4712"/>
</linearGradient>
<linearGradient id="paint3_linear_2_304" x1="27.8908" y1="19.7513" x2="453.417" y2="353.599" gradientUnits="userSpaceOnUse">
<stop offset="0.306085" stop-color="#7F4712"/>
<stop offset="0.457914" stop-color="#FFBF85"/>
<stop offset="0.737239" stop-color="#7F4712"/>
</linearGradient>
</defs>
</svg>
