<svg width="131" height="98" viewBox="0 0 131 98" fill="none" xmlns="http://www.w3.org/2000/svg">
<path d="M88.6071 53.3413C74.1462 38.9556 50.6547 38.9556 36.1938 53.3413" stroke="#9DA4B2" stroke-width="2" stroke-linecap="round"/>
<path d="M18.4946 39.3825C30.2202 27.7015 45.8074 21.27 62.3801 21.27H62.4203C78.9931 21.27 94.5803 27.7015 106.306 39.3825" stroke="#9DA4B2" stroke-width="2" stroke-linecap="round"/>
<path d="M123.261 26.125C106.99 9.91598 85.3692 1 62.3806 1C39.392 1 17.771 9.91598 1.5 26.125" stroke="#9DA4B2" stroke-width="2" stroke-linecap="round"/>
<path d="M62.3806 81.675C57.4788 81.675 53.5054 77.7112 53.5054 72.8374C53.5054 67.9635 57.4788 63.9998 62.3806 63.9998C67.2824 63.9998 71.2559 67.9635 71.2559 72.8374C71.2559 77.7112 67.2824 81.675 62.3806 81.675Z" stroke="#9DA4B2" stroke-width="2"/>
<path d="M129.495 77.3052C129.495 88.105 120.583 96.8892 109.553 96.8892C98.5231 96.8892 89.6111 88.105 89.6111 77.3052C89.6111 66.5054 98.5231 57.7212 109.553 57.7212C120.583 57.7212 129.495 66.5054 129.495 77.3052Z" stroke="#9DA4B2" stroke-width="2"/>
<line x1="1" y1="-1" x2="19.7638" y2="-1" transform="matrix(0.713176 -0.700985 0.713176 0.700985 103.57 85.9792)" stroke="#9DA4B2" stroke-width="2" stroke-linecap="round"/>
<line x1="1" y1="-1" x2="19.7638" y2="-1" transform="matrix(0.713176 0.700985 -0.713176 0.700985 100.578 71.4241)" stroke="#9DA4B2" stroke-width="2" stroke-linecap="round"/>
</svg>
